<svg width="284" height="40" viewBox="0 0 284 40" fill="none" xmlns="http://www.w3.org/2000/svg">
<g clip-path="url(#clip0_201_12)">
<path d="M37.728 18.192L37.248 18.224L36.96 17.296C38.4533 16.9333 39.552 16.5707 40.256 16.208C40.96 15.8453 41.3547 15.6427 41.44 15.6C41.7173 15.6 41.888 15.6213 41.952 15.664C41.9733 15.7067 42.0373 16.5173 42.144 18.096C43.4027 16.6027 44.6507 15.856 45.888 15.856C47.1253 15.856 47.872 16.1013 48.128 16.592C48.128 17.0613 47.7547 17.776 47.008 18.736C46.7733 19.056 46.6347 19.216 46.592 19.216L44.032 18.288H43.84C43.3707 18.288 42.976 18.5227 42.656 18.992C42.336 19.4613 42.176 20.1227 42.176 20.976V27.728C42.176 28.112 42.336 28.3893 42.656 28.56C42.976 28.7307 43.6373 28.816 44.64 28.816L44.928 30.096L41.216 30L37.568 30.096L37.312 28.816C38.336 28.7307 38.944 28.6453 39.136 28.56C39.3493 28.4533 39.456 28.176 39.456 27.728V20.24C39.456 19.472 39.3173 18.9387 39.04 18.64C38.7627 18.3413 38.3253 18.192 37.728 18.192ZM61.533 22.224H52.253V22.64C52.253 24.1973 52.6903 25.552 53.565 26.704C54.4397 27.8347 55.6023 28.4 57.053 28.4C58.5037 28.4 59.6983 27.9307 60.637 26.992C60.701 26.928 60.7543 26.896 60.797 26.896C60.8397 26.896 60.893 26.928 60.957 26.992L61.661 27.792C60.061 29.52 58.205 30.384 56.093 30.384C54.0023 30.384 52.349 29.7227 51.133 28.4C49.9383 27.0773 49.341 25.3173 49.341 23.12C49.341 20.9013 50.0237 19.1413 51.389 17.84C52.7543 16.5173 54.3117 15.856 56.061 15.856C57.8103 15.856 59.1863 16.3893 60.189 17.456C61.1917 18.5013 61.693 19.9733 61.693 21.872C61.693 22.1067 61.6397 22.224 61.533 22.224ZM58.493 20.72C58.493 18.3733 57.5863 17.2 55.773 17.2C54.813 17.2 54.0343 17.5413 53.437 18.224C52.8397 18.8853 52.477 19.7173 52.349 20.72H58.493ZM69.3725 28.592C70.4605 28.592 71.2712 28.2293 71.8045 27.504V23.92C69.9698 24.24 68.7432 24.6027 68.1245 25.008C67.5058 25.392 67.1965 25.9467 67.1965 26.672C67.2392 27.3333 67.4632 27.824 67.8685 28.144C68.2738 28.4427 68.7752 28.592 69.3725 28.592ZM75.8685 28.4H76.5405C76.6472 28.4 76.7218 28.3893 76.7645 28.368C76.8498 28.9227 76.9245 29.264 76.9885 29.392C76.7325 29.52 76.1458 29.7227 75.2285 30C74.3325 30.256 73.6712 30.384 73.2445 30.384C72.8178 30.384 72.5192 30.2347 72.3485 29.936C72.1778 29.616 72.0498 29.0613 71.9645 28.272C71.6018 28.784 71.0578 29.2533 70.3325 29.68C69.6285 30.1067 68.9138 30.3413 68.1885 30.384H68.0285C67.0045 30.384 66.1192 30.096 65.3725 29.52C64.6472 28.944 64.2845 28.112 64.2845 27.024C64.2845 25.936 64.7858 25.104 65.7885 24.528C66.8125 23.9307 68.8178 23.3547 71.8045 22.8V20.88C71.8045 18.576 70.9405 17.424 69.2125 17.424C68.6152 17.424 68.0498 17.5733 67.5165 17.872V20.048C67.5165 20.1547 67.2285 20.2613 66.6525 20.368C66.0978 20.4747 65.7245 20.528 65.5325 20.528C65.3618 20.528 65.1912 20.5067 65.0205 20.464C64.8498 20.2933 64.7645 19.9093 64.7645 19.312C64.7645 18.7147 64.9352 18.224 65.2765 17.84C65.5965 17.4133 66.3645 16.976 67.5805 16.528C68.7965 16.08 69.7458 15.856 70.4285 15.856C73.1165 15.856 74.4605 17.3707 74.4605 20.4V26.8C74.4605 27.4827 74.5885 27.92 74.8445 28.112C75.1218 28.304 75.4632 28.4 75.8685 28.4ZM81.7628 30L78.3068 30.096L78.0508 28.816C79.0748 28.7307 79.6828 28.6453 79.8748 28.56C80.0881 28.4533 80.1948 28.176 80.1948 27.728V10.128C80.1948 9.424 80.0668 8.944 79.8108 8.688C79.5761 8.432 79.2454 8.304 78.8188 8.304C78.4134 8.304 78.1361 8.31467 77.9868 8.336L77.6988 7.376C79.3414 6.88533 80.8881 6.32 82.3388 5.68C82.7228 5.68 82.9148 5.88266 82.9148 6.288V27.728C82.9148 28.112 83.0214 28.3787 83.2348 28.528C83.4481 28.656 83.9281 28.752 84.6748 28.816L84.9628 30.096L81.7628 30ZM91.9283 28.944C93.6776 28.944 94.5523 28.24 94.5523 26.832C94.5523 26.2347 94.2856 25.744 93.7523 25.36C93.2403 24.9547 92.6109 24.624 91.8643 24.368C91.1389 24.0907 90.4029 23.792 89.6562 23.472C88.9096 23.152 88.2696 22.672 87.7363 22.032C87.2243 21.392 86.9683 20.5387 86.9683 19.472C86.9683 18.384 87.4376 17.5093 88.3763 16.848C89.3363 16.1653 90.4776 15.824 91.8003 15.824C93.1229 15.824 94.5629 16.0693 96.1203 16.56C96.3336 16.688 96.4403 17.1573 96.4403 17.968C96.4403 18.7787 96.3763 19.504 96.2483 20.144L94.9683 20.016C94.8616 19.1627 94.5309 18.48 93.9763 17.968C93.4216 17.4347 92.7389 17.168 91.9283 17.168C91.1389 17.168 90.5096 17.3387 90.0403 17.68C89.5923 18.0213 89.3683 18.4693 89.3683 19.024C89.3683 19.5787 89.6243 20.048 90.1363 20.432C90.6696 20.816 91.3096 21.136 92.0563 21.392C92.8029 21.6267 93.5496 21.8933 94.2963 22.192C95.0643 22.4693 95.7043 22.9387 96.2163 23.6C96.7496 24.2613 97.0163 25.1573 97.0163 26.288C97.0163 27.4187 96.5469 28.3893 95.6083 29.2C94.6909 29.9893 93.5069 30.384 92.0563 30.384C90.6056 30.384 89.0163 30.064 87.2883 29.424C87.1816 29.36 87.0856 28.8693 87.0003 27.952C86.9149 27.0347 86.8723 26.288 86.8723 25.712V25.552L88.3763 25.424C88.7176 27.7707 89.9016 28.944 91.9283 28.944ZM103.243 25.488C103.243 26.512 103.424 27.3013 103.787 27.856C104.149 28.3893 104.64 28.656 105.259 28.656C105.899 28.656 106.485 28.4853 107.019 28.144C107.104 28.1013 107.189 28.1227 107.275 28.208L107.851 29.072C106.677 29.9467 105.461 30.384 104.203 30.384C102.965 30.384 102.037 30 101.419 29.232C100.821 28.4427 100.523 27.5147 100.523 26.448V18.416C100.523 18.16 100.48 18 100.395 17.936C100.331 17.872 100.235 17.84 100.107 17.84H98.9868L98.6988 16.912C99.5948 16.6347 100.32 16.1867 100.875 15.568C101.451 14.9493 102.005 14.1173 102.539 13.072H102.891C103.04 13.072 103.115 13.136 103.115 13.264L103.243 15.824C103.243 16.1013 103.381 16.24 103.659 16.24H107.307L107.595 17.84H103.595C103.381 17.84 103.275 18 103.275 18.32C103.275 18.3413 103.275 18.352 103.275 18.352V18.416L103.243 25.488ZM115.216 28.592C116.304 28.592 117.115 28.2293 117.648 27.504V23.92C115.814 24.24 114.587 24.6027 113.968 25.008C113.35 25.392 113.04 25.9467 113.04 26.672C113.083 27.3333 113.307 27.824 113.712 28.144C114.118 28.4427 114.619 28.592 115.216 28.592ZM121.712 28.4H122.384C122.491 28.4 122.566 28.3893 122.608 28.368C122.694 28.9227 122.768 29.264 122.832 29.392C122.576 29.52 121.99 29.7227 121.072 30C120.176 30.256 119.515 30.384 119.088 30.384C118.662 30.384 118.363 30.2347 118.192 29.936C118.022 29.616 117.894 29.0613 117.808 28.272C117.446 28.784 116.902 29.2533 116.176 29.68C115.472 30.1067 114.758 30.3413 114.032 30.384H113.872C112.848 30.384 111.963 30.096 111.216 29.52C110.491 28.944 110.128 28.112 110.128 27.024C110.128 25.936 110.63 25.104 111.632 24.528C112.656 23.9307 114.662 23.3547 117.648 22.8V20.88C117.648 18.576 116.784 17.424 115.056 17.424C114.459 17.424 113.894 17.5733 113.36 17.872V20.048C113.36 20.1547 113.072 20.2613 112.496 20.368C111.942 20.4747 111.568 20.528 111.376 20.528C111.206 20.528 111.035 20.5067 110.864 20.464C110.694 20.2933 110.608 19.9093 110.608 19.312C110.608 18.7147 110.779 18.224 111.12 17.84C111.44 17.4133 112.208 16.976 113.424 16.528C114.64 16.08 115.59 15.856 116.272 15.856C118.96 15.856 120.304 17.3707 120.304 20.4V26.8C120.304 27.4827 120.432 27.92 120.688 28.112C120.966 28.304 121.307 28.4 121.712 28.4ZM128.087 25.488C128.087 26.512 128.268 27.3013 128.631 27.856C128.993 28.3893 129.484 28.656 130.103 28.656C130.743 28.656 131.329 28.4853 131.863 28.144C131.948 28.1013 132.033 28.1227 132.119 28.208L132.695 29.072C131.521 29.9467 130.305 30.384 129.047 30.384C127.809 30.384 126.881 30 126.263 29.232C125.665 28.4427 125.367 27.5147 125.367 26.448V18.416C125.367 18.16 125.324 18 125.239 17.936C125.175 17.872 125.079 17.84 124.951 17.84H123.831L123.543 16.912C124.439 16.6347 125.164 16.1867 125.719 15.568C126.295 14.9493 126.849 14.1173 127.383 13.072H127.735C127.884 13.072 127.959 13.136 127.959 13.264L128.087 15.824C128.087 16.1013 128.225 16.24 128.503 16.24H132.151L132.439 17.84H128.439C128.225 17.84 128.119 18 128.119 18.32C128.119 18.3413 128.119 18.352 128.119 18.352V18.416L128.087 25.488ZM146.908 22.224H137.628V22.64C137.628 24.1973 138.065 25.552 138.94 26.704C139.815 27.8347 140.977 28.4 142.428 28.4C143.879 28.4 145.073 27.9307 146.012 26.992C146.076 26.928 146.129 26.896 146.172 26.896C146.215 26.896 146.268 26.928 146.332 26.992L147.036 27.792C145.436 29.52 143.58 30.384 141.468 30.384C139.377 30.384 137.724 29.7227 136.508 28.4C135.313 27.0773 134.716 25.3173 134.716 23.12C134.716 20.9013 135.399 19.1413 136.764 17.84C138.129 16.5173 139.687 15.856 141.436 15.856C143.185 15.856 144.561 16.3893 145.564 17.456C146.567 18.5013 147.068 19.9733 147.068 21.872C147.068 22.1067 147.015 22.224 146.908 22.224ZM143.868 20.72C143.868 18.3733 142.961 17.2 141.148 17.2C140.188 17.2 139.409 17.5413 138.812 18.224C138.215 18.8853 137.852 19.7173 137.724 20.72H143.868Z" fill="black"/>
<rect x="6.40523" y="15.9804" width="18.3007" height="18.3007" fill="#D82525"/>
<path d="M15.5556 5L29.0271 20.098H2.08405L15.5556 5Z" fill="#D82525"/>
<path d="M11.48 15.592L13.4 15.64L15.848 15.576C17.0213 15.576 17.9813 15.8267 18.728 16.328C19.4747 16.8293 19.848 17.5973 19.848 18.632C19.848 20.1573 19.0747 21.1867 17.528 21.72C17.752 22.0187 18.104 22.4987 18.584 23.16C19.6187 24.632 20.3173 25.5387 20.68 25.88C21.0533 26.2213 21.48 26.4133 21.96 26.456L22.168 27.016L20.984 26.968L19.384 27C19.1813 26.7227 18.6427 25.9227 17.768 24.6C16.904 23.2773 16.3227 22.4347 16.024 22.072C15.9813 22.0293 15.9227 22.008 15.848 22.008H14.312V25.72C14.312 25.9333 14.408 26.0827 14.6 26.168C14.792 26.2427 15.16 26.3013 15.704 26.344L15.848 27.048C14.472 27.016 13.768 27 13.736 27L11.688 27.048L11.56 26.344C12.1573 26.28 12.52 26.2213 12.648 26.168C12.7867 26.104 12.856 25.9547 12.856 25.72V16.92C12.856 16.7067 12.776 16.5627 12.616 16.488C12.4667 16.4027 12.136 16.3387 11.624 16.296L11.48 15.592ZM14.312 16.6V21.24C14.5573 21.272 14.9093 21.288 15.368 21.288C17.3413 21.288 18.328 20.408 18.328 18.648C18.328 17.88 18.0773 17.304 17.576 16.92C17.0747 16.5253 16.424 16.328 15.624 16.328C14.9307 16.328 14.536 16.36 14.44 16.424C14.3547 16.4773 14.312 16.536 14.312 16.6Z" fill="white"/>
</g>
<defs>
<clipPath id="clip0_201_12">
<rect width="284" height="40" fill="white"/>
</clipPath>
</defs>
</svg>
